<svg xmlns="http://www.w3.org/2000/svg" xmlns:xlink="http://www.w3.org/1999/xlink" width="1000" height="760" viewBox="0 0 1000 760" ><g fill="white"><path d="M145 560L153.8 555.8L175 554L196.2 555.8L508.2 593.2L517 597.4L508.2 601.7L487 603.4L465.8 601.7L153.8 564.2Z"/><path d="M812 545L820.8 540.8L842 539L863.2 540.8L943 550.3L943 563.9L820.8 549.2Z"/><path d="M324 530L328.7 527.2L340 526L351.3 527.2L533.3 549L538 551.8L533.3 554.7L522 555.8L510.7 554.7L328.7 532.8Z"/><path d="M592 580L612 558L788 547L923.2 563.2L903.2 585.2L727.2 596.2Z"/><path d="M58 507L290 470L378.4 480.6L378.4 483.6L146.4 520.6L58 510Z"/><path d="M193 538.5L200.9 536L220 535L239.1 536L301.5 543.5L309.4 546L301.5 548.5L282.4 549.5L263.3 548.5L200.9 541Z"/><path d="M402.4 442L408.7 439.5L424 438.5L439.3 439.5L488.7 445.5L495 447.9L488.7 450.4L473.4 451.4L458.1 450.4L408.7 444.5Z"/><path d="M857.2 661L868.3 658.5L895 657.5L921.7 658.5L943 661.1L943 672.4L868.3 663.5Z"/><path d="M660 638L667 635.2L684 634L701 635.2L747.8 640.8L754.8 643.6L747.8 646.4L730.8 647.6L713.8 646.4L667 640.8Z"/><ellipse cx="175" cy="561" rx="31" ry="5"/><ellipse cx="842" cy="546" rx="32" ry="4"/><ellipse cx="340" cy="531" rx="17" ry="3"/><path d="M596 574L767 563L786 548L614 558Z"/><ellipse cx="684" cy="639" rx="25" ry="4"/><ellipse cx="220" cy="539.5" rx="28.5" ry="3.5"/><ellipse cx="424" cy="443" rx="22.8" ry="3.5"/><ellipse cx="895" cy="662" rx="39.9" ry="3.5"/><ellipse cx="65" cy="508" rx="10" ry="3"/><ellipse cx="284" cy="470" rx="8" ry="2.5"/><path d="M188.2 330L187.8 368.3L192.1 406.7L194.5 445L194.2 483.3L197.6 521.7L212.5 560L186.2 560L181.6 521.7L180.4 483.3L180.9 445L179.6 406.7L176.7 368.3L177.4 330ZM834.8 296.1L841.6 331.7L848.5 367.2L853.1 402.8L855.3 438.3L859 473.9L862.6 509.4L876.9 545L853.2 545L847.8 509.4L845.8 473.9L844 438.3L842 402.8L837.8 367.2L832 331.7L825.7 296.1ZM748 518.5L770 517L770 511L790 487L768 488.5L748 512.5ZM761 517L768 517L768 569L761 569ZM781 493L788 493L788 547L781 547ZM790 487L797 487L801 417L794 417ZM340 351L349 351L354 314L340 314ZM340 513L344.5 513L343.5 358L340 358ZM695 608L705 608L709 638L695 638ZM65.5 429.3L73 429.3L73 505.3L65.5 505.3ZM284 411.8L290 411.8L290 469.8L284 469.8ZM208.2 222.7L221.7 229.4L232.3 237.6L239.7 246.9L243.5 256.9L243.5 267.1L239.7 277.1L232.3 286.4L221.7 294.6L208.2 301.3L184.1 281.7L190.8 278.3L196.2 274.2L199.9 269.5L201.8 264.6L201.8 259.4L199.9 254.5L196.2 249.8L190.8 245.7L184.1 242.3ZM299.9 227.6L310.4 233.5L318.8 240.6L324.7 248.8L327.6 257.5L327.6 266.5L324.7 275.2L318.8 283.4L310.4 290.5L299.9 296.4L280.9 279.2L286.2 276.3L290.4 272.7L293.3 268.6L294.8 264.2L294.8 259.8L293.3 255.4L290.4 251.3L286.2 247.7L280.9 244.8ZM867.9 212.3L880.7 218.8L890.9 226.6L897.9 235.5L901.5 245.1L901.5 254.9L897.9 264.5L890.9 273.4L880.7 281.2L867.9 287.7L844.9 268.8L851.4 265.6L856.4 261.7L860 257.2L861.8 252.4L861.8 247.6L860 242.8L856.4 238.3L851.4 234.4L844.9 231.2ZM766.4 213.2L776 218.8L783.7 225.7L789 233.4L791.7 241.7L791.7 250.3L789 258.6L783.7 266.3L776 273.2L766.4 278.8L749.2 262.4L754 259.6L757.8 256.2L760.5 252.3L761.8 248.1L761.8 243.9L760.5 239.7L757.8 235.8L754 232.4L749.2 229.6ZM399 230.9L407.6 236.2L414.5 242.7L419.3 250L421.7 258L421.7 266L419.3 274L414.5 281.3L407.6 287.8L399 293.1L383.5 277.6L387.8 274.9L391.3 271.7L393.6 268L394.8 264L394.8 260L393.6 256L391.3 252.3L387.8 249.1L383.5 246.4ZM664.1 233.2L673.1 238.8L680.2 245.7L685.2 253.4L687.7 261.7L687.7 270.3L685.2 278.6L680.2 286.3L673.1 293.2L664.1 298.8L648.1 282.4L652.6 279.6L656.1 276.2L658.6 272.3L659.8 268.1L659.8 263.9L658.6 259.7L656.1 255.8L652.6 252.4L648.1 249.6ZM237.2 504L242 507.1L245.8 510.8L248.5 515.1L249.8 519.7L249.8 524.3L248.5 528.9L245.8 533.2L242 536.9L237.2 540L228.6 531L231 529.5L232.9 527.6L234.2 525.5L234.9 523.2L234.9 520.8L234.2 518.5L232.9 516.4L231 514.5L228.6 513ZM437.8 416.9L441.6 419.1L444.7 421.9L446.8 425L447.9 428.3L447.9 431.7L446.8 435L444.7 438.1L441.6 440.9L437.8 443.1L430.9 436.6L432.8 435.4L434.3 434.1L435.4 432.5L435.9 430.9L435.9 429.1L435.4 427.5L434.3 425.9L432.8 424.6L430.9 423.4ZM919.1 617.1L925.8 621L931.2 625.8L934.9 631.2L936.8 637L936.8 643L934.9 648.8L931.2 654.2L925.8 659L919.1 662.9L907 651.5L910.4 649.5L913.1 647.1L914.9 644.4L915.9 641.5L915.9 638.5L914.9 635.6L913.1 632.9L910.4 630.5L907 628.5Z"/></g></svg>
