<svg xmlns="http://www.w3.org/2000/svg" xmlns:xlink="http://www.w3.org/1999/xlink" width="1000" height="760" viewBox="0 0 1000 760" ><g fill="white"><path d="M86 680L89 677.3L174 647.3L182.7 645.1L195.7 643.5L211 643L226.3 643.5L239.3 645.1L248 647.3L251 650L248 652.7L163 682.7L154.3 684.9L141.3 686.5L126 687L110.7 686.5L97.7 684.9L89 682.7ZM55 619.1L88.6 619.8L191.1 625.4L220 628L244.9 632.1L263.9 637.5L275.9 643.8L280 650.5L275.9 657.2L263.9 663.5L244.9 668.9L220 673L191.1 675.6L160 676.5L88.6 678.2L55 678.9ZM257 652L253.5 654.3L243.5 656.2L228.6 657.5L211 658L193.4 657.5L178.5 656.2L168.5 654.3L165 652L168.5 649.7L178.5 647.8L193.4 646.5L211 646L228.6 646.5L243.5 647.8L253.5 649.7ZM782.3 625.2L807.8 616.2L820.6 616.2L820.6 620.2L795.1 629.2L782.3 629.2ZM688.8 595.8L714.3 586.8L725.7 586.8L725.7 590.8L700.2 599.8L688.8 599.8ZM595.2 547.6L620.7 538.6L630.7 538.6L630.7 542.6L605.2 551.6L595.2 551.6ZM510.4 503.9L535.9 494.9L544.6 494.9L544.6 498.9L519.1 507.9L510.4 507.9ZM892.5 599.2L909.5 593.2L922.3 593.2L922.3 596.2L905.3 602.2L892.5 602.2ZM780.3 556.9L797.3 550.9L808.7 550.9L808.7 553.9L791.7 559.9L780.3 559.9ZM668.1 514.6L685.1 508.6L695.1 508.6L695.1 511.6L678.1 517.6L668.1 517.6ZM566.5 476.3L583.5 470.3L592.1 470.3L592.1 473.3L575.1 479.3L566.5 479.3ZM908.8 613L908.8 620L804.8 630L792.8 624.2ZM838 626.8L804.8 630L510.2 487.2L510.2 479.2L532 478.5ZM531.4 497.5L510.2 487.2L510.2 479.2L531.4 478.5ZM512.6 559.9L533.8 550.9L671.4 598.2L650.2 607.2L621.8 608.4L601.2 608.4L579.6 603.9L558.5 595.9L539.6 584.8L524.4 572.4ZM339 655L359.1 637.6L384.6 628.6L455.4 628.6L474.3 647L448.8 656L412.2 659L370.9 659ZM479 649L474.5 650.9L461.7 652.5L442.6 653.6L420 654L397.4 653.6L378.3 652.5L365.5 650.9L361 649L365.5 647.1L378.3 645.5L397.4 644.4L420 644L442.6 644.4L461.7 645.5L474.5 647.1ZM477.8 681L491.1 668.4L516.6 659.4L563.4 659.4L575.9 673L550.4 682L526.2 685L498.9 685ZM579 675L576 676.9L567.6 678.5L554.9 679.6L540 680L525.1 679.6L512.4 678.5L504 676.9L501 675L504 673.1L512.4 671.5L525.1 670.4L540 670L554.9 670.4L567.6 671.5L576 673.1ZM275.5 621L286.7 610.8L312.2 601.8L351.8 601.8L362.4 613L336.9 622L316.4 625L293.3 625ZM365 615L362.5 616.9L355.3 618.5L344.6 619.6L332 620L319.4 619.6L308.7 618.5L301.5 616.9L299 615L301.5 613.1L308.7 611.5L319.4 610.4L332 610L344.6 610.4L355.3 611.5L362.5 613.1ZM748.2 677L757.7 668L783.2 659L816.8 659L825.8 669L800.3 678L782.9 681L763.3 681ZM828 671L825.9 672.9L819.8 674.5L810.7 675.6L800 676L789.3 675.6L780.2 674.5L774.1 672.9L772 671L774.1 669.1L780.2 667.5L789.3 666.4L800 666L810.7 666.4L819.8 667.5L825.9 669.1Z"/><path d="M168 653L176 646L183 634L182 618L187 598L184 572L186 544L183 516L185 488L183 460L185 434L186 412L198 412L197 434L195 460L197 488L195 516L198 544L196 572L199 598L194 618L195 634L188 646L180 653ZM176 396L164 378L152 358L140 338L130 318L122 300L118 290L122 285L126 295L134 313L144 333L156 353L168 373L180 391ZM909.5 547.5L915.9 547.5L915.9 594.7L909.5 594.7ZM807.8 557.3L814.2 557.3L814.2 618.2L807.8 618.2ZM797.3 511.3L803 511.3L803 552.4L797.3 552.4ZM714.3 519.3L720 519.3L720 588.8L714.3 588.8ZM685.1 475.1L690.1 475.1L690.1 510.1L685.1 510.1ZM620.7 481.3L625.7 481.3L625.7 540.6L620.7 540.6ZM583.5 442.3L587.8 442.3L587.8 471.8L583.5 471.8ZM535.9 446.8L540.3 446.8L540.3 496.9L535.9 496.9ZM361.9 646L363 622.8L376.1 602.8L396.2 589.5L408.2 590.2L408.2 650L396.4 650L364.5 647ZM503.2 672L501.1 654.6L513.8 643.7L524.2 631L532.2 630L532.2 676L524.4 676L503.3 673ZM297.3 612L303 599.6L308.5 587.8L319.6 581.2L325.4 578.8L325.4 616L318.8 616L301 613ZM769.4 668L774.8 656.8L778.5 644.9L788.2 637.5L794.4 639.2L794.4 672L788.8 672L773.7 669ZM533.8 537L545.6 545.5L560.8 554.5L579.8 563.3L592 567.8L592 591.5L579.8 586.9L560.8 575.8L545.6 563.4L533.8 550.9Z"/></g></svg>
